<svg xmlns="http://www.w3.org/2000/svg" xmlns:xlink="http://www.w3.org/1999/xlink" fill="none" version="1.1" width="16" height="16" viewBox="0 0 16 16"><g><g><g style="opacity:0;"><path d="M0,16L16,16L16,0L0,0L0,16Z" fill-rule="evenodd" fill="#D8D8D8" fill-opacity="1"/></g><g><path d="M7.028893505859375,7.472186003723144L12.582043505859374,1.6666460037231445L14.333343505859375,3.4975660037231444L8.780503505859375,9.302796003723145L7.000003505859375,9.333316003723144L7.028893505859375,7.472186003723144ZM6.621493505859375,1.9999800037231446L8.811493505859374,4.175756003723144L6.571083505859375,6.416146003723145L6.531713505859375,6.459056003723145C6.432093505859375,6.577516003723145,6.375733505859375,6.727136003723144,6.373173505859375,6.883066003723145L6.333343505859375,9.312906003723144L6.334303505859375,9.362306003723145C6.354283505859375,9.721346003723145,6.654963505859375,10.005876003723145,7.020333505859375,9.999886003723145L9.450193505859374,9.960056003723144L9.508323505859375,9.956596003723144C9.662293505859376,9.940756003723145,9.806843505859375,9.872426003723145,9.917123505859376,9.762146003723144L12.168443505859376,7.510876003723144L13.998143505859375,9.328746003723143L14.000043505859376,9.378496003723145L14.000043505859376,12.333346003723145C14.000043505859376,13.595146003723144,12.998443505859376,14.623046003723145,11.746943505859376,14.665246003723144L11.666643505859374,14.666646003723145L3.666673505859375,14.666646003723145C2.404863505859375,14.666646003723145,1.376977305859375,13.665046003723145,1.334696515859375,12.413546003723145L1.333343505859375,12.333346003723145L1.333343505859375,4.333316003723144C1.333343505859375,3.0714960037231442,2.334933505859375,2.0436140037231447,3.586463505859375,2.0013330037231447L3.666673505859375,1.9999800037231446L6.621493505859375,1.9999800037231446Z" fill-rule="evenodd" fill="#FFFFFF" fill-opacity="1"/></g></g></g></svg>