<svg xmlns="http://www.w3.org/2000/svg" xmlns:xlink="http://www.w3.org/1999/xlink" fill="none" version="1.1" width="16" height="16" viewBox="0 0 16 16"><g><g><g style="opacity:0;"><path d="M0,16L16,16L16,0L0,0L0,16Z" fill-rule="evenodd" fill="#D8D8D8" fill-opacity="1"/></g><g><path d="M11.698328247070313,1.1682451218719483C11.944928247070312,0.9215983218719482,12.336828247070313,0.9086169218719482,12.598728247070312,1.1293011218719482L12.641128247070313,1.1682451218719483L14.998128247070312,3.5252631218719483C15.244828247070313,3.771913121871948,15.257828247070313,4.163743121871948,15.037128247070312,4.425673121871949L14.998128247070312,4.468073121871948L9.851988247070313,9.614243121871949C9.743238247070312,9.722993121871948,9.600688247070313,9.790383121871947,9.448838247070313,9.806003121871948L9.391518247070312,9.809413121871948L6.9952082470703125,9.848703121871948C6.634878247070312,9.854603121871948,6.3383482470703125,9.574003121871948,6.318658247070313,9.219913121871949L6.317708247070312,9.171193121871948L6.356988247070312,6.774893121871949C6.359508247070313,6.621103121871948,6.4150882470703126,6.473553121871948,6.513338247070313,6.356733121871948L6.552158247070312,6.314413121871948L11.698328247070313,1.1682451218719483ZM7.288138247070313,2.666643121871948C7.288138247070313,2.2984531218719484,6.989668247070313,1.9999831218719482,6.621478247070312,1.9999831218719482L3.6666582470703126,1.9999831218719482L3.5864482470703125,2.0013331218719483C2.3349182470703127,2.043613121871948,1.3333282470703125,3.0714931218719483,1.3333282470703125,4.333313121871948L1.3333282470703125,12.333283121871949L1.3346812570703126,12.413483121871948C1.3769620470703126,13.665083121871948,2.4048482470703125,14.666683121871948,3.6666582470703126,14.666683121871948L11.666628247070312,14.666683121871948L11.746928247070313,14.665283121871948C12.998428247070313,14.622983121871949,14.000028247070313,13.595083121871948,14.000028247070313,12.333283121871949L14.000028247070313,9.378503121871947L13.998128247070312,9.328743121871948C13.972728247070313,8.983793121871948,13.684828247070312,8.711833121871948,13.333328247070312,8.711833121871948C12.965128247070313,8.711833121871948,12.666628247070312,9.010313121871949,12.666628247070312,9.378503121871947L12.666628247070312,12.333283121871949L12.664928247070312,12.392083121871948C12.634528247070312,12.916983121871949,12.199228247070312,13.333283121871949,11.666628247070312,13.333283121871949L3.6666582470703126,13.333283121871949L3.6079082470703123,13.331583121871947C3.082968247070313,13.301183121871949,2.6666582470703126,12.865883121871947,2.6666582470703126,12.333283121871949L2.6666582470703126,4.333313121871948L2.668358247070312,4.274553121871948C2.6987782470703126,3.7496231218719482,3.1340982470703125,3.333313121871948,3.6666582470703126,3.333313121871948L6.621478247070312,3.333313121871948L6.671228247070313,3.331483121871948C7.016188247070312,3.3060331218719483,7.288138247070313,3.018103121871948,7.288138247070313,2.666643121871948ZM12.170328247070312,2.582363121871948L7.686098247070312,7.066593121871948L7.6627682470703125,8.504143121871948L9.100548247070313,8.480573121871949L13.584528247070313,3.9965731218719482L12.170328247070312,2.582363121871948Z" fill-rule="evenodd" fill="#FFFFFF" fill-opacity="1"/></g></g></g></svg>