<svg xmlns="http://www.w3.org/2000/svg" xmlns:xlink="http://www.w3.org/1999/xlink" fill="none" version="1.1" width="16" height="16" viewBox="0 0 16 16"><g><g><g style="opacity:0;"><path d="M0,16L16,16L16,0L0,0L0,16Z" fill-rule="evenodd" fill="#E4E4E4" fill-opacity="1"/></g><g><path d="M8.138069999999999,3.80474L6.33333,2L3,2C1.8954309999999999,2,1,2.895431,1,4L1,12C1,13.1046,1.8954309999999999,14,3,14L13,14C14.1046,14,15,13.1046,15,12L15,6C15,4.89543,14.1046,4,13,4L8.60948,4C8.43266,4,8.2631,3.92976,8.138069999999999,3.80474ZM4.66667,9.66667L11.3333,9.66667L11.3831,9.6685C11.728,9.693950000000001,12,9.98188,12,10.33333C12,10.70152,11.7015,11,11.3333,11L4.66667,11L4.61691,10.99817C4.27196,10.97272,4,10.68479,4,10.33333C4,9.96514,4.29848,9.66667,4.66667,9.66667Z" fill-rule="evenodd" fill="#FFFFFF" fill-opacity="1"/></g></g></g></svg>