<svg xmlns="http://www.w3.org/2000/svg" xmlns:xlink="http://www.w3.org/1999/xlink" fill="none" version="1.1" width="16" height="16" viewBox="0 0 16 16"><g><g><g style="opacity:0;"><rect x="0" y="0" width="16" height="16" rx="0" fill="#D8D8D8" fill-opacity="1"/></g><g><path d="M8.802960538711549,1.3475781143493653L14.456670538711547,4.457121114349365C14.940570538711547,4.723271114349365,15.117170538711548,5.331331114349365,14.850970538711548,5.8152511143493655C14.759570538711548,5.981411114349365,14.622870538711547,6.118161114349365,14.456670538711547,6.209551114349365L8.802960538711549,9.319091114349366C8.302820538711547,9.594161114349365,7.696700538711548,9.594161114349365,7.196560538711548,9.319091114349366L1.542857538711548,6.209551114349365C1.0589363387115478,5.943391114349366,0.8824035387115479,5.335331114349366,1.148559538711548,4.851411114349365C1.239947538711548,4.685251114349365,1.3766975387115479,4.548501114349365,1.542857538711548,4.457121114349365L7.196560538711548,1.3475781143493653C7.696700538711548,1.0725022143493652,8.302820538711547,1.0725022143493652,8.802960538711549,1.3475781143493653ZM1.9301315387115479,7.720901114349365L1.9771695387115478,7.7433911143493654L7.844760538711548,10.831591114349365C7.929790538711548,10.876341114349366,8.029340538711548,10.881941114349365,8.118000538711549,10.848371114349366L8.155250538711549,10.831591114349365L14.022870538711548,7.7433911143493654C14.348670538711549,7.571901114349365,14.751770538711547,7.697021114349365,14.923270538711549,8.022831114349366C15.086570538711548,8.333141114349365,14.980870538711548,8.713581114349365,14.688970538711548,8.897241114349365L14.643870538711548,8.923281114349365L8.776250538711547,12.011471114349366C8.315920538711548,12.253771114349366,7.770520538711548,12.266471114349365,7.301240538711548,12.049771114349365L7.223760538711548,12.011471114349366L1.3561745387115478,8.923281114349365C1.0303564387115478,8.751791114349366,0.9052433387115478,8.348651114349366,1.0767264387115478,8.022831114349366C1.2400435387115478,7.712531114349365,1.613482538711548,7.584271114349365,1.9301315387115479,7.720901114349365ZM1.9771695387115478,10.410051114349365L1.9301315387115479,10.387561114349365C1.613482538711548,10.250941114349365,1.2400435387115478,10.379201114349366,1.0767264387115478,10.689501114349365C0.9052433387115478,11.015321114349366,1.0303564387115478,11.418471114349366,1.3561745387115478,11.589971114349366L7.223760538711548,14.678171114349365L7.301240538711548,14.716371114349366C7.770520538711548,14.933171114349365,8.315920538711548,14.920471114349365,8.776250538711547,14.678171114349365L14.643870538711548,11.589971114349366L14.688970538711548,11.563871114349364C14.980870538711548,11.380271114349366,15.086570538711548,10.999811114349365,14.923270538711549,10.689501114349365C14.751770538711547,10.363681114349365,14.348670538711549,10.238571114349366,14.022870538711548,10.410051114349365L8.155250538711549,13.498271114349365L8.118000538711549,13.515071114349364C8.029340538711548,13.548571114349365,7.929790538711548,13.542971114349365,7.844760538711548,13.498271114349365L1.9771695387115478,10.410051114349365Z" fill-rule="evenodd" fill="#FFFFFF" fill-opacity="1"/></g></g></g></svg>