<svg xmlns="http://www.w3.org/2000/svg" xmlns:xlink="http://www.w3.org/1999/xlink" fill="none" version="1.1" width="16" height="16" viewBox="0 0 16 16"><g><g><g style="opacity:0;"><rect x="0" y="0" width="16" height="16" rx="0" fill="#D8D8D8" fill-opacity="1"/></g><g><path d="M8.802930021133424,1.3475831211395264L14.456640021133422,4.4571261211395266C14.940540021133422,4.723276121139526,15.117140021133423,5.331336121139526,14.850940021133423,5.815256121139527C14.759540021133423,5.981416121139526,14.622840021133422,6.118166121139526,14.456640021133422,6.209556121139526L8.802930021133424,9.319096121139527C8.302790021133422,9.594166121139526,7.696670021133423,9.594166121139526,7.196530021133423,9.319096121139527L1.542827021133423,6.209556121139526C1.0589058211334228,5.943396121139527,0.8823730211334229,5.335336121139527,1.148529021133423,4.851416121139526C1.239917021133423,4.685256121139526,1.3766670211334229,4.548506121139527,1.542827021133423,4.4571261211395266L7.196530021133423,1.3475831211395264C7.696670021133423,1.0725072211395263,8.302790021133422,1.0725072211395263,8.802930021133424,1.3475831211395264ZM7.838630021133423,2.5158661211395263L2.7159700211334226,5.333336121139526L7.838630021133423,8.150806121139526C7.938660021133423,8.205816121139527,8.059890021133423,8.205816121139527,8.159910021133424,8.150806121139526L13.282540021133423,5.333336121139526L8.159910021133424,2.5158661211395263C8.059890021133423,2.4608561211395266,7.938660021133423,2.4608561211395266,7.838630021133423,2.5158661211395263ZM1.9301010211334229,7.720906121139526L1.9771390211334228,7.743396121139527L7.844730021133423,10.831606121139526C7.929760021133423,10.876356121139526,8.029310021133423,10.881956121139526,8.117970021133424,10.848386121139526L8.155220021133424,10.831606121139526L14.022840021133423,7.743396121139527C14.348640021133424,7.571916121139527,14.751740021133422,7.697026121139526,14.923240021133424,8.022846121139526C15.086540021133423,8.333146121139526,14.980840021133423,8.713586121139526,14.688940021133423,8.897256121139527L14.643840021133423,8.923296121139526L8.776220021133422,12.011476121139527C8.315890021133423,12.253776121139527,7.770490021133423,12.266476121139526,7.301210021133423,12.049776121139526L7.223730021133423,12.011476121139527L1.3561440211334228,8.923296121139526C1.0303259211334228,8.751806121139527,0.9052128211334228,8.348666121139527,1.0766959211334228,8.022846121139526C1.2400130211334228,7.7125461211395265,1.613452021133423,7.5842861211395265,1.9301010211334229,7.720906121139526ZM1.9301010211334229,10.387576121139526L1.9771390211334228,10.410066121139526L7.844730021133423,13.498276121139526C7.929760021133423,13.543076121139526,8.029310021133423,13.548576121139526,8.117970021133424,13.515076121139526L8.155220021133424,13.498276121139526L14.022840021133423,10.410066121139526C14.348640021133424,10.238586121139527,14.751740021133422,10.363696121139526,14.923240021133424,10.689516121139526C15.086540021133423,10.999816121139526,14.980840021133423,11.380276121139527,14.688940021133423,11.563876121139526L14.643840021133423,11.589976121139527L8.776220021133422,14.678176121139526C8.315890021133423,14.920476121139526,7.770490021133423,14.933176121139526,7.301210021133423,14.716376121139527L7.223730021133423,14.678176121139526L1.3561440211334228,11.589976121139527C1.0303259211334228,11.418476121139527,0.9052128211334228,11.015336121139526,1.0766959211334228,10.689516121139526C1.2400130211334228,10.379216121139526,1.613452021133423,10.250956121139527,1.9301010211334229,10.387576121139526Z" fill-rule="evenodd" fill="#FFFFFF" fill-opacity="1"/></g></g></g></svg>