<svg xmlns="http://www.w3.org/2000/svg" xmlns:xlink="http://www.w3.org/1999/xlink" fill="none" version="1.1" width="16" height="16" viewBox="0 0 16 16"><g><g><g style="opacity:0;"><path d="M0,16L16,16L16,0L0,0L0,16Z" fill-rule="evenodd" fill="#D8D8D8" fill-opacity="1"/></g><g><path d="M6.33333,2L8.138069999999999,3.80474C8.2631,3.92976,8.43266,4,8.60948,4L13,4C14.1046,4,15,4.89543,15,6L15,12C15,13.1046,14.1046,14,13,14L3,14C1.8954309999999999,14,1,13.1046,1,12L1,4C1,2.895431,1.8954309999999999,2,3,2L6.33333,2ZM3.00001,3.33333L5.78101,3.33333L7.19527,4.74755L7.26283,4.81202C7.63027,5.14668,8.11026,5.33333,8.609490000000001,5.33333L13,5.33333L13.0498,5.33516C13.3947,5.360609999999999,13.6667,5.648540000000001,13.6667,6L13.6667,12L13.6648,12.0498C13.6394,12.3947,13.3515,12.6667,13,12.6667L3.00001,12.6667L2.95026,12.6648C2.6052999999999997,12.6394,2.3333399999999997,12.3515,2.3333399999999997,12L2.3333399999999997,4L2.3351699999999997,3.95024C2.36062,3.60529,2.64856,3.33333,3.00001,3.33333ZM11.3333,9.66667C11.7015,9.66667,12,9.96514,12,10.33333C12,10.70152,11.7015,11,11.3333,11L4.66667,11C4.29848,11,4,10.70152,4,10.33333C4,9.96514,4.29848,9.66667,4.66667,9.66667L11.3333,9.66667Z" fill-rule="evenodd" fill="#FFFFFF" fill-opacity="1"/></g></g></g></svg>