<svg xmlns="http://www.w3.org/2000/svg" xmlns:xlink="http://www.w3.org/1999/xlink" fill="none" version="1.1" width="16" height="16" viewBox="0 0 16 16"><g><g><g style="opacity:0;"><rect x="0" y="0" width="16" height="16" rx="0" fill="#D8D8D8" fill-opacity="1"/></g><g><path d="M11.666673505859375,1C12.771243505859376,1,13.666643505859374,1.8954309999999999,13.666643505859374,3L13.666643505859374,13C13.666643505859374,14.1046,12.771243505859376,15,11.666673505859375,15L4.333343505859375,15C3.228774505859375,15,2.333343505859375,14.1046,2.333343505859375,13L2.333343505859375,3C2.333343505859375,1.8954309999999999,3.228774505859375,1,4.333343505859375,1L11.666673505859375,1ZM11.666653505859376,2.3333399999999997L4.333323505859375,2.3333399999999997C3.981873505859375,2.3333399999999997,3.693933505859375,2.6052999999999997,3.668483505859375,2.95025L3.666653505859375,3L3.666653505859375,13C3.666653505859375,13.3515,3.938613505859375,13.6394,4.2835735058593745,13.6648L4.333323505859375,13.6667L11.666653505859376,13.6667C12.018113505859375,13.6667,12.306043505859375,13.3947,12.331493505859376,13.0498L12.333323505859376,13L12.333323505859376,3C12.333323505859376,2.64855,12.061363505859376,2.3606100000000003,11.716413505859375,2.33516L11.666653505859376,2.3333399999999997ZM9.666663505859376,5C9.666663505859376,4.63181,9.368193505859374,4.33334,9.000003505859375,4.33334L5.6666635058593755,4.33334C5.298473505859375,4.33334,5.000003505859375,4.63181,5.000003505859375,5C5.000003505859375,5.36819,5.298473505859375,5.66667,5.6666635058593755,5.66667L9.000003505859375,5.66667C9.368193505859374,5.66667,9.666663505859376,5.36819,9.666663505859376,5ZM11.666663505859376,7.66667C11.666663505859376,7.29848,11.368193505859375,7,11.000003505859375,7L5.6666635058593755,7C5.298473505859375,7,5.000003505859375,7.29848,5.000003505859375,7.66667C5.000003505859375,8.03486,5.298473505859375,8.33333,5.6666635058593755,8.33333L11.000003505859375,8.33333C11.368193505859375,8.33333,11.666663505859376,8.03486,11.666663505859376,7.66667ZM7.666663505859375,9.66667C8.034853505859374,9.66667,8.333333505859375,9.96515,8.333333505859375,10.33333C8.333333505859375,10.70152,8.034853505859374,11,7.666663505859375,11L5.6666635058593755,11C5.298473505859375,11,5.000003505859375,10.70152,5.000003505859375,10.33333C5.000003505859375,9.96515,5.298473505859375,9.66667,5.6666635058593755,9.66667L7.666663505859375,9.66667Z" fill-rule="evenodd" fill="#FFFFFF" fill-opacity="1"/></g></g></g></svg>