<svg xmlns="http://www.w3.org/2000/svg" xmlns:xlink="http://www.w3.org/1999/xlink" fill="none" version="1.1" width="16" height="16" viewBox="0 0 16 16"><g><g><g style="opacity:0;"><rect x="0" y="0" width="16" height="16" rx="0" fill="#D8D8D8" fill-opacity="1"/></g><g><path d="M11.666658247070313,1C12.771228247070313,1,13.666628247070312,1.8954309999999999,13.666628247070312,3L13.666628247070312,13C13.666628247070312,14.1046,12.771228247070313,15,11.666658247070313,15L4.3333282470703125,15C3.2287592470703124,15,2.3333282470703125,14.1046,2.3333282470703125,13L2.3333282470703125,3C2.3333282470703125,1.8954309999999999,3.2287592470703124,1,4.3333282470703125,1L11.666658247070313,1ZM9.000018247070312,4.33334C9.368208247070314,4.33334,9.666678247070312,4.63181,9.666678247070312,5C9.666678247070312,5.36819,9.368208247070314,5.66667,9.000018247070312,5.66667L5.666678247070312,5.66667C5.2984882470703125,5.66667,5.0000182470703125,5.36819,5.0000182470703125,5C5.0000182470703125,4.63181,5.2984882470703125,4.33334,5.666678247070312,4.33334L9.000018247070312,4.33334ZM11.000018247070312,7C11.368208247070312,7,11.666678247070312,7.29848,11.666678247070312,7.66667C11.666678247070312,8.03486,11.368208247070312,8.33333,11.000018247070312,8.33333L5.666678247070312,8.33333C5.2984882470703125,8.33333,5.0000182470703125,8.03486,5.0000182470703125,7.66667C5.0000182470703125,7.29848,5.2984882470703125,7,5.666678247070312,7L11.000018247070312,7ZM7.666678247070313,9.66667C8.034868247070312,9.66667,8.333348247070312,9.96515,8.333348247070312,10.33333C8.333348247070312,10.70152,8.034868247070312,11,7.666678247070313,11L5.666678247070312,11C5.2984882470703125,11,5.0000182470703125,10.70152,5.0000182470703125,10.33333C5.0000182470703125,9.96515,5.2984882470703125,9.66667,5.666678247070312,9.66667L7.666678247070313,9.66667Z" fill-rule="evenodd" fill="#FFFFFF" fill-opacity="1"/></g></g></g></svg>